<svg width="80" height="80" xmlns="http://www.w3.org/2000/svg"><defs><linearGradient x1="0%" y1="27.819%" x2="100%" y2="71.267%" id="a"><stop stop-color="#EEE" offset="0%"/><stop stop-color="#D8D8D8" offset="100%"/></linearGradient><linearGradient x1="100%" y1="64.396%" x2="0%" y2="35.604%" id="b"><stop stop-color="#3D41DA" offset="0%"/><stop stop-color="#0088F7" offset="100%"/></linearGradient></defs><g fill="none" fill-rule="evenodd"><rect width="46" height="30" rx="4" transform="translate(15 23)" fill="url(#a)"/><path d="M43.51 48.114A4.502 4.502 0 0 1 47 52.5V56a1 1 0 0 1-1 1H36a1 1 0 0 1-1-1v-3.5a4.502 4.502 0 0 1 3.49-4.386 4 4 0 1 1 5.022 0zm-12.459 3.075A3.001 3.001 0 0 1 33 54v2a1 1 0 0 1-1 1h-6a1 1 0 0 1-1-1v-2c0-1.287.81-2.385 1.949-2.81a3 3 0 1 1 4.102 0zm29.567-6.158A6 6 0 0 1 66 51v5a1 1 0 0 1-1 1H50a1 1 0 0 1-1-1v-5a6 6 0 0 1 5.382-5.969 5.5 5.5 0 1 1 6.236 0z" fill="url(#b)" fill-rule="nonzero"/></g></svg>