<svg width="80" height="80" xmlns="http://www.w3.org/2000/svg"><defs><linearGradient x1="0%" y1="-2.15%" x2="100%" y2="100%" id="a"><stop stop-color="#EEE" offset="0%"/><stop stop-color="#D8D8D8" offset="100%"/></linearGradient><linearGradient x1="100%" y1="100%" x2="0%" y2="0%" id="b"><stop stop-color="#3D41DA" offset="0%"/><stop stop-color="#0088F7" offset="100%"/></linearGradient><linearGradient x1="100%" y1="74.906%" x2="0%" y2="25.094%" id="c"><stop stop-color="#3D41DA" offset="0%"/><stop stop-color="#0088F7" offset="100%"/></linearGradient></defs><g transform="translate(11 20)" fill="none" fill-rule="evenodd"><rect fill="url(#a)" x="18" width="40" height="40" rx="20"/><rect fill="url(#b)" x="14" y="16" width="8" height="8" rx="4"/><path d="M28.084 11.106l5.682 4.654a5.5 5.5 0 0 1 .022 8.491l-5.694 4.714a15.829 15.829 0 0 1-20.188 0l-5.694-4.714a5.5 5.5 0 0 1 .022-8.491l5.682-4.654a15.914 15.914 0 0 1 20.168 0zm-3.168 3.868a10.914 10.914 0 0 0-13.832 0l-5.682 4.654a.5.5 0 0 0-.002.772l5.694 4.714a10.829 10.829 0 0 0 13.812 0L30.6 20.4a.5.5 0 0 0-.002-.772l-5.682-4.654z" fill="url(#c)" fill-rule="nonzero"/></g></svg>