<svg width="80" height="80" xmlns="http://www.w3.org/2000/svg"><defs><linearGradient x1="0%" y1="27.819%" x2="100%" y2="71.267%" id="a"><stop stop-color="#EEE" offset="0%"/><stop stop-color="#D8D8D8" offset="100%"/></linearGradient><linearGradient x1="100%" y1="66.142%" x2="0%" y2="33.858%" id="b"><stop stop-color="#3D41DA" offset="0%"/><stop stop-color="#0088F7" offset="100%"/></linearGradient></defs><g transform="translate(12 20)" fill="none" fill-rule="evenodd"><rect fill="url(#a)" y="10" width="46" height="30" rx="4"/><path d="M47.664 5.58h-3.272c-1.514 0-2.74-1.249-2.74-2.79 0-1.54 1.226-2.79 2.74-2.79h9.897c.698-.007 1.4.26 1.932.802A2.728 2.728 0 0 1 57 2.79v10.045c0 1.54-1.227 2.79-2.74 2.79-1.515 0-2.742-1.25-2.742-2.79V9.363L40.094 20.857a2.659 2.659 0 0 1-3.782 0l-7.702-7.75-11.036 11.104a2.659 2.659 0 0 1-3.795-.013 2.742 2.742 0 0 1 .013-3.843L26.72 7.35a2.659 2.659 0 0 1 3.781 0l7.703 7.749 9.461-9.519z" fill="url(#b)" fill-rule="nonzero"/></g></svg>