<svg width="80" height="80" xmlns="http://www.w3.org/2000/svg"><defs><linearGradient x1="0%" y1="7.758%" x2="100%" y2="90.5%" id="a"><stop stop-color="#EEE" offset="0%"/><stop stop-color="#D8D8D8" offset="100%"/></linearGradient><linearGradient x1="100%" y1="52.469%" x2="0%" y2="47.531%" id="b"><stop stop-color="#3D41DA" offset="0%"/><stop stop-color="#0088F7" offset="100%"/></linearGradient></defs><g fill="none" fill-rule="evenodd"><path d="M40.273 55L33 65V55h-.5c-3.596 0-6.738-.746-9.331-2.14a14.614 14.614 0 0 1-6.029-6.029C15.746 44.238 15 41.096 15 37.5c0-3.596.746-6.738 2.14-9.331a14.614 14.614 0 0 1 6.029-6.029C25.762 20.746 28.904 20 32.5 20h15c3.596 0 6.738.746 9.331 2.14a14.614 14.614 0 0 1 6.029 6.029C64.254 30.762 65 33.904 65 37.5c0 3.596-.746 6.738-2.14 9.331a14.614 14.614 0 0 1-6.029 6.029C54.238 54.254 51.096 55 47.5 55h-7.227z" fill="url(#a)"/><path d="M30 41a3 3 0 1 1 0-6 3 3 0 0 1 0 6zm10.5 0a3 3 0 1 1 0-6 3 3 0 0 1 0 6zM51 41a3 3 0 1 1 0-6 3 3 0 0 1 0 6z" fill="url(#b)" fill-rule="nonzero"/></g></svg>