<svg width="80" height="80" xmlns="http://www.w3.org/2000/svg"><defs><linearGradient x1="32.285%" y1="-2.15%" x2="67.715%" y2="100%" id="a"><stop stop-color="#EEE" offset="0%"/><stop stop-color="#D8D8D8" offset="100%"/></linearGradient><linearGradient x1="100%" y1="66.142%" x2="0%" y2="33.858%" id="b"><stop stop-color="#3D41DA" offset="0%"/><stop stop-color="#0088F7" offset="100%"/></linearGradient></defs><g fill-rule="nonzero" fill="none"><path d="M25 27.289c0 2.4-.814 4.444-2.443 6.133-1.628 1.69-3.822 2.8-6.58 3.334v2.177c0 .919-.286 1.66-.858 2.223-.572.563-1.313.844-2.223.844-.91 0-1.65-.281-2.223-.844-.572-.563-.858-1.304-.858-2.223v-2c-3.257-.414-6.044-1.377-8.363-2.889-.528-.325-.902-.696-1.122-1.11-.22-.415-.33-.964-.33-1.645 0-.889.257-1.66.77-2.311.514-.652 1.123-.978 1.827-.978.352 0 .704.06 1.056.178.352.118.807.34 1.365.666 1.29.712 2.494 1.215 3.609 1.512 1.115.296 2.303.444 3.565.444 1.555 0 2.736-.26 3.543-.778.807-.518 1.21-1.296 1.21-2.333 0-.622-.242-1.133-.726-1.533-.484-.4-1.085-.719-1.804-.956-.72-.237-1.768-.533-3.147-.889-2.201-.563-4.006-1.133-5.414-1.711-1.409-.578-2.626-1.481-3.653-2.711-1.027-1.23-1.54-2.882-1.54-4.956 0-2.37.82-4.43 2.464-6.177C4.768 7.007 6.94 5.852 9.639 5.289V3.067c0-.89.294-1.623.88-2.2C11.106.289 11.84 0 12.72 0c.91 0 1.65.281 2.223.844.572.563.858 1.304.858 2.223v2.089c2.436.385 4.812 1.318 7.13 2.8.529.355.903.748 1.123 1.177.22.43.33.956.33 1.578 0 .889-.264 1.66-.792 2.311-.529.652-1.145.978-1.849.978-.352 0-.69-.06-1.012-.178-.323-.118-.793-.34-1.409-.666-.205-.119-.66-.363-1.364-.734-.704-.37-1.46-.666-2.267-.889a9.66 9.66 0 0 0-2.575-.333c-1.32 0-2.391.289-3.213.867-.821.577-1.232 1.355-1.232 2.333 0 .948.47 1.66 1.408 2.133.94.474 2.421.948 4.446 1.423 2.171.503 3.954 1.037 5.347 1.6 1.394.563 2.597 1.466 3.61 2.71C24.494 23.512 25 25.187 25 27.29z" fill="url(#a)" transform="translate(16 19)"/><path d="M38.664 13.58h-3.272c-1.514 0-2.74-1.249-2.74-2.79 0-1.54 1.226-2.79 2.74-2.79h9.897c.698-.007 1.4.26 1.932.802A2.728 2.728 0 0 1 48 10.79v10.045c0 1.54-1.227 2.79-2.74 2.79-1.515 0-2.742-1.25-2.742-2.79v-3.472L31.094 28.857a2.659 2.659 0 0 1-3.782 0l-7.702-7.75L8.574 32.212a2.659 2.659 0 0 1-3.795-.013 2.742 2.742 0 0 1 .013-3.843L17.72 15.35a2.659 2.659 0 0 1 3.781 0l7.703 7.749 9.461-9.519z" fill="url(#b)" transform="translate(16 19)"/></g></svg>