<svg width="80" height="80" xmlns="http://www.w3.org/2000/svg"><defs><linearGradient x1="0%" y1="12.21%" x2="100%" y2="86.232%" id="a"><stop stop-color="#EEE" offset="0%"/><stop stop-color="#D8D8D8" offset="100%"/></linearGradient><linearGradient x1="67.014%" y1="100%" x2="32.986%" y2="0%" id="b"><stop stop-color="#3D41DA" offset="0%"/><stop stop-color="#0088F7" offset="100%"/></linearGradient></defs><g fill-rule="nonzero" fill="none"><path d="M22.175 4.303C17.294-.578 9.38-.578 4.498 4.303c-4.882 4.882-4.882 12.796 0 17.678L26 43.483 47.502 21.98c4.882-4.882 4.882-12.796 0-17.678-4.881-4.881-12.796-4.881-17.677 0L26 8.128l-3.825-3.825z" fill="url(#a)" transform="translate(14 18)"/><path d="M20 25.594c0 1.371-.456 2.54-1.368 3.504-.912.965-2.14 1.6-3.685 1.905v1.245c0 .524-.16.948-.48 1.27-.32.321-.736.482-1.245.482-.51 0-.924-.16-1.245-.483-.32-.321-.48-.745-.48-1.27v-1.142c-1.824-.237-3.385-.788-4.684-1.651-.295-.186-.505-.398-.628-.635S6 28.269 6 27.879c0-.508.144-.948.431-1.32.288-.373.629-.559 1.023-.559.197 0 .395.034.592.102.197.067.452.194.764.38.723.407 1.397.695 2.021.864a7.6 7.6 0 0 0 1.996.254c.871 0 1.533-.148 1.985-.444.451-.297.677-.741.677-1.334 0-.355-.135-.647-.406-.876a3.066 3.066 0 0 0-1.01-.546c-.403-.135-.99-.305-1.763-.508-1.233-.322-2.243-.648-3.032-.978a5.232 5.232 0 0 1-2.046-1.549c-.575-.703-.862-1.646-.862-2.832 0-1.354.46-2.53 1.38-3.53.92-.999 2.136-1.66 3.648-1.98v-1.27c0-.509.164-.928.493-1.258.328-.33.74-.495 1.232-.495.51 0 .925.16 1.245.483.32.321.48.745.48 1.27v1.193c1.364.22 2.695.753 3.994 1.6.295.203.505.428.628.673.123.246.185.546.185.902 0 .508-.148.948-.444 1.32-.296.373-.64.559-1.035.559-.197 0-.386-.034-.567-.102a7.049 7.049 0 0 1-.789-.38c-.115-.068-.37-.208-.764-.42a6.251 6.251 0 0 0-1.269-.508 5.308 5.308 0 0 0-1.442-.19c-.74 0-1.34.165-1.8.495-.46.33-.69.775-.69 1.334 0 .541.264.948.79 1.219.525.27 1.355.541 2.489.812 1.216.288 2.214.593 2.995.915.78.321 1.454.838 2.02 1.549.568.71.851 1.668.851 2.87z" fill="url(#b)" transform="translate(14 18)"/></g></svg>