<svg width="80" height="80" xmlns="http://www.w3.org/2000/svg"><defs><linearGradient x1="0%" y1="29.629%" x2="100%" y2="69.531%" id="a"><stop stop-color="#EEE" offset="0%"/><stop stop-color="#D8D8D8" offset="100%"/></linearGradient><linearGradient x1="100%" y1="100%" x2="0%" y2="0%" id="b"><stop stop-color="#3D41DA" offset="0%"/><stop stop-color="#0088F7" offset="100%"/></linearGradient></defs><g fill="none" fill-rule="evenodd"><path d="M36.904 7.88l21.597 26.997A5 5 0 0 1 54.597 43H11.403A5 5 0 0 1 7.5 34.877L29.096 7.88a5 5 0 0 1 7.808 0z" fill="url(#a)" transform="rotate(-180 37 32)"/><path d="M18.298 11.269h-3.071a3.134 3.134 0 0 1 0-6.269h10.639A3.134 3.134 0 0 1 29 8.134v10.64a3.134 3.134 0 0 1-6.269 0v-3.072l-12.38 12.38a3.134 3.134 0 0 1-4.433-4.433l12.38-12.38z" fill="url(#b)" fill-rule="nonzero" transform="rotate(-135 24.728 24.343)"/></g></svg>