<svg width="80" height="80" xmlns="http://www.w3.org/2000/svg"><defs><linearGradient x1="0%" y1="29.629%" x2="100%" y2="69.531%" id="a"><stop stop-color="#EEE" offset="0%"/><stop stop-color="#D8D8D8" offset="100%"/></linearGradient><linearGradient x1="90.028%" y1="100%" x2="9.972%" y2="0%" id="b"><stop stop-color="#3D41DA" offset="0%"/><stop stop-color="#0088F7" offset="100%"/></linearGradient></defs><g fill="none" fill-rule="evenodd"><path d="M35.904 20.88l21.597 26.997A5 5 0 0 1 53.597 56H10.403A5 5 0 0 1 6.5 47.877L28.096 20.88a5 5 0 0 1 7.808 0z" fill="url(#a)" transform="rotate(-180 36 42)"/><path d="M24.942 25l-1.39 2.024h17.9c1.399 0 2.548 1.105 2.548 2.488S42.85 32 41.452 32h-18.84a4.718 4.718 0 0 1-2.523-.729c-2.141-1.356-2.737-4.149-1.317-6.22l1.784-2.6-1.26-12.79-.524-4.472h-3.3C14.089 5.189 13 4.01 13 2.594 13 1.18 14.088 0 15.473 0h3.674c2.268 0 4.148 1.809 4.406 4.174l.09.826h21.801c.982 0 1.718.912 1.525 1.889L43.651 23.73A1.562 1.562 0 0 1 42.126 25H24.942zM22.5 38a2.5 2.5 0 1 1 0-5 2.5 2.5 0 0 1 0 5zm18 0a2.5 2.5 0 1 1 0-5 2.5 2.5 0 0 1 0 5zM24 9l1.33 12h14.008L42 9H24z" fill="url(#b)" fill-rule="nonzero" transform="translate(8 12)"/></g></svg>