<svg width="80" height="80" xmlns="http://www.w3.org/2000/svg"><defs><linearGradient x1="0%" y1="-2.15%" x2="100%" y2="100%" id="a"><stop stop-color="#EEE" offset="0%"/><stop stop-color="#D8D8D8" offset="100%"/></linearGradient><linearGradient x1="100%" y1="94.291%" x2="0%" y2="5.709%" id="b"><stop stop-color="#3D41DA" offset="0%"/><stop stop-color="#0088F7" offset="100%"/></linearGradient></defs><g fill="none" fill-rule="evenodd"><path d="M24.791 4h4.418c4.853 0 7.347.65 9.629 1.87a12.721 12.721 0 0 1 5.292 5.292c1.22 2.282 1.87 4.776 1.87 9.63v4.417c0 4.853-.65 7.347-1.87 9.629a12.721 12.721 0 0 1-5.292 5.292c-2.282 1.22-4.776 1.87-9.63 1.87h-4.417c-4.853 0-7.347-.65-9.629-1.87a12.721 12.721 0 0 1-5.292-5.292C8.65 32.556 8 30.062 8 25.208v-4.417c0-4.853.65-7.347 1.87-9.629a12.721 12.721 0 0 1 5.292-5.292C17.444 4.65 19.938 4 24.792 4z" fill="url(#a)" transform="translate(13 17)"/><path d="M51 30.368a10.336 10.336 0 0 1-2.56 2.613c.01.217.015.434.015.653C48.455 40.306 43.297 48 33.862 48c-2.896 0-5.592-.836-7.862-2.268.401.046.81.07 1.224.07 2.403 0 4.614-.807 6.37-2.161-2.245-.041-4.14-1.5-4.792-3.507a5.2 5.2 0 0 0 2.317-.086c-2.347-.464-4.115-2.505-4.115-4.951v-.063a5.17 5.17 0 0 0 2.324.631 5.027 5.027 0 0 1-2.282-4.202c0-.926.253-1.793.694-2.539A14.639 14.639 0 0 0 38.312 34.2a4.993 4.993 0 0 1-.133-1.151c0-2.788 2.297-5.049 5.13-5.049a5.16 5.16 0 0 1 3.743 1.594 10.37 10.37 0 0 0 3.257-1.225 5.08 5.08 0 0 1-2.255 2.794A10.382 10.382 0 0 0 51 30.368zM19.6 28h-3.848v-6.17c0-1.47-.025-3.363-2-3.363-2.003 0-2.308 1.603-2.308 3.259V28H7.6V15.315h3.689v1.734h.053c.513-.998 1.769-2.049 3.64-2.049 3.898 0 4.618 2.626 4.618 6.043V28zM2.502 13a2.5 2.5 0 1 1 0-5 2.5 2.5 0 0 1 0 5zM.6 15h4v13h-4V15zM41 .17v3.76h-2.544c-1.993 0-2.366.84-2.366 2.05v2.691h4.748l-.632 4.215H36.09v10.806h-4.958V12.886H27V8.67h4.132V5.567C31.132 1.965 33.644 0 37.306 0c1.75 0 3.257.114 3.694.17z" fill="url(#b)" fill-rule="nonzero" transform="translate(13 17)"/></g></svg>